<svg xmlns="http://www.w3.org/2000/svg" xmlns:xlink="http://www.w3.org/1999/xlink" width="136" height="28" viewBox="0 0 136 28">
  <defs>
    <clipPath id="clip-header_logo_pc">
      <rect width="136" height="28"/>
    </clipPath>
  </defs>
  <g id="header_logo_pc" clip-path="url(#clip-header_logo_pc)">
    <rect width="136" height="28" fill="#fff"/>
    <g id="그룹_3740" data-name="그룹 3740" transform="translate(1582.819 -2782.688)">
      <path id="패스_669" data-name="패스 669" d="M34.4,24.5V4.278A3.84,3.84,0,0,0,31.133,0H17.454V6.221H12.946V2.8L16.358,0H3.534C-.582,0,.033,4.437.033,4.437V24.652C.033,27.294,3.382,28,3.382,28h15.16V11.974L23.2,7V24.5L19.63,28H30.51c4.362.073,3.891-3.5,3.891-3.5m-20.68-2.8H8.2a5.769,5.769,0,0,1-4.9-4.975s-.31-3.424,3.42-6.69c0,0-.933,6.843,5.133,6.843,0,0,4.584.31,5.6,0Zm3.733-5.753H12.946V11.9H7.654a4.234,4.234,0,0,1,4.2-4.51h5.6ZM28.1,21.466H24.294V16.8h7.7Zm.077-9.565H24.294V7.232h7.779Z" transform="translate(-1582.819 2782.688)" fill="#0f4b95"/>
      <path id="패스_670" data-name="패스 670" d="M327.183,12.666h9.847l3.1,3.178v4.369s-.441,8.141-8.954,8.141h-4.592V25.689a37.229,37.229,0,0,0,4.518-.291s5.035-1.925,4.662-6.59V15.328h-8.587Z" transform="translate(-1817.793 2773.612)" fill="#1a1818"/>
      <path id="패스_671" data-name="패스 671" d="M383,10.841h4.216V17.28h3.7V20.46h-3.546V33.491H383Z" transform="translate(-1858.332 2774.92)" fill="#1a1818"/>
      <path id="패스_672" data-name="패스 672" d="M412.768,13.946V10.841h15.1l2.593,3.258v7.4h2.222V24.61h-8.064v8.658h-4.08V24.61h-8.281V21.577h14.428v-7.63Z" transform="translate(-1879.5 2774.92)" fill="#1a1818"/>
      <path id="패스_673" data-name="패스 673" d="M237.78,11.393h4.593v6.886s1.1,5.551,5.323,5.7h3.109v-3.7h-4.295V17.022h4.149V10.728h4.514v22.8h-4.368V27.015h-3.254s-3.78.742-7.408-3.92c0,0-2.738,4.07-5.846,3.92h-2.736V24.277s6.219-.742,6.219-5.848Z" transform="translate(-1749.482 2775.001)" fill="#1a1818"/>
      <path id="패스_674" data-name="패스 674" d="M162.131,21.368h-9.688V19.3h7.921V16.4H144.82V13.145h15.609V10.556H139.935v5.7l3.625,3.184H148v1.927h-9.4V24.1h4.67c-1.707,1.111-1.777,3.776-1.777,3.776,0,6.585,8.73,6.585,8.73,6.585,9.028,0,9.028-6.585,9.028-6.585a5.6,5.6,0,0,0-1.479-3.853h4.361Zm-11.762,10.46a4.041,4.041,0,0,1-4.188-3.876,4.2,4.2,0,0,1,8.38,0,4.044,4.044,0,0,1-4.192,3.876" transform="translate(-1682.572 2775.124)" fill="#1a1818"/>
      <rect id="사각형_886" data-name="사각형 886" width="136" height="28" transform="translate(-1582.819 2782.688)" fill="none"/>
    </g>
  </g>
</svg>
